<mxfile host="Electron" agent="Mozilla/5.0 (Windows NT 10.0; Win64; x64) AppleWebKit/537.36 (KHTML, like Gecko) draw.io/26.0.7 Chrome/128.0.6613.186 Electron/32.2.5 Safari/537.36" version="26.0.7">
  <diagram name="페이지-1" id="9E_nMpADokcifX1YVMuv">
    <mxGraphModel dx="3120" dy="2072" grid="1" gridSize="10" guides="1" tooltips="1" connect="1" arrows="1" fold="1" page="1" pageScale="1" pageWidth="827" pageHeight="1169" math="0" shadow="0">
      <root>
        <mxCell id="0" />
        <mxCell id="1" parent="0" />
        <mxCell id="zOYn-aUXPlLyW62DlDA4-12" style="edgeStyle=orthogonalEdgeStyle;rounded=0;orthogonalLoop=1;jettySize=auto;html=1;entryX=0;entryY=0.5;entryDx=0;entryDy=0;endArrow=none;startFill=0;" edge="1" parent="1" source="zOYn-aUXPlLyW62DlDA4-1" target="zOYn-aUXPlLyW62DlDA4-6">
          <mxGeometry relative="1" as="geometry" />
        </mxCell>
        <mxCell id="zOYn-aUXPlLyW62DlDA4-1" value="Person" style="swimlane;fontStyle=1;align=center;verticalAlign=top;childLayout=stackLayout;horizontal=1;startSize=26;horizontalStack=0;resizeParent=1;resizeParentMax=0;resizeLast=0;collapsible=1;marginBottom=0;whiteSpace=wrap;html=1;" vertex="1" parent="1">
          <mxGeometry x="120" y="160" width="160" height="86" as="geometry" />
        </mxCell>
        <mxCell id="zOYn-aUXPlLyW62DlDA4-2" value="+ field: type" style="text;strokeColor=none;fillColor=none;align=left;verticalAlign=top;spacingLeft=4;spacingRight=4;overflow=hidden;rotatable=0;points=[[0,0.5],[1,0.5]];portConstraint=eastwest;whiteSpace=wrap;html=1;" vertex="1" parent="zOYn-aUXPlLyW62DlDA4-1">
          <mxGeometry y="26" width="160" height="26" as="geometry" />
        </mxCell>
        <mxCell id="zOYn-aUXPlLyW62DlDA4-3" value="" style="line;strokeWidth=1;fillColor=none;align=left;verticalAlign=middle;spacingTop=-1;spacingLeft=3;spacingRight=3;rotatable=0;labelPosition=right;points=[];portConstraint=eastwest;strokeColor=inherit;" vertex="1" parent="zOYn-aUXPlLyW62DlDA4-1">
          <mxGeometry y="52" width="160" height="8" as="geometry" />
        </mxCell>
        <mxCell id="zOYn-aUXPlLyW62DlDA4-4" value="+ method(type): type" style="text;strokeColor=none;fillColor=none;align=left;verticalAlign=top;spacingLeft=4;spacingRight=4;overflow=hidden;rotatable=0;points=[[0,0.5],[1,0.5]];portConstraint=eastwest;whiteSpace=wrap;html=1;" vertex="1" parent="zOYn-aUXPlLyW62DlDA4-1">
          <mxGeometry y="60" width="160" height="26" as="geometry" />
        </mxCell>
        <mxCell id="zOYn-aUXPlLyW62DlDA4-5" value="Car" style="swimlane;fontStyle=1;align=center;verticalAlign=top;childLayout=stackLayout;horizontal=1;startSize=26;horizontalStack=0;resizeParent=1;resizeParentMax=0;resizeLast=0;collapsible=1;marginBottom=0;whiteSpace=wrap;html=1;" vertex="1" parent="1">
          <mxGeometry x="399" y="164" width="160" height="86" as="geometry" />
        </mxCell>
        <mxCell id="zOYn-aUXPlLyW62DlDA4-6" value="+ field: type" style="text;strokeColor=none;fillColor=none;align=left;verticalAlign=top;spacingLeft=4;spacingRight=4;overflow=hidden;rotatable=0;points=[[0,0.5],[1,0.5]];portConstraint=eastwest;whiteSpace=wrap;html=1;" vertex="1" parent="zOYn-aUXPlLyW62DlDA4-5">
          <mxGeometry y="26" width="160" height="26" as="geometry" />
        </mxCell>
        <mxCell id="zOYn-aUXPlLyW62DlDA4-7" value="" style="line;strokeWidth=1;fillColor=none;align=left;verticalAlign=middle;spacingTop=-1;spacingLeft=3;spacingRight=3;rotatable=0;labelPosition=right;points=[];portConstraint=eastwest;strokeColor=inherit;" vertex="1" parent="zOYn-aUXPlLyW62DlDA4-5">
          <mxGeometry y="52" width="160" height="8" as="geometry" />
        </mxCell>
        <mxCell id="zOYn-aUXPlLyW62DlDA4-8" value="+ method(type): type" style="text;strokeColor=none;fillColor=none;align=left;verticalAlign=top;spacingLeft=4;spacingRight=4;overflow=hidden;rotatable=0;points=[[0,0.5],[1,0.5]];portConstraint=eastwest;whiteSpace=wrap;html=1;" vertex="1" parent="zOYn-aUXPlLyW62DlDA4-5">
          <mxGeometry y="60" width="160" height="26" as="geometry" />
        </mxCell>
        <mxCell id="zOYn-aUXPlLyW62DlDA4-9" value="사람이 자동차를 소유한다" style="text;html=1;align=center;verticalAlign=middle;resizable=0;points=[];autosize=1;strokeColor=none;fillColor=none;" vertex="1" parent="1">
          <mxGeometry x="120" y="120" width="160" height="30" as="geometry" />
        </mxCell>
        <mxCell id="zOYn-aUXPlLyW62DlDA4-13" value="소유" style="text;html=1;align=center;verticalAlign=middle;resizable=0;points=[];autosize=1;strokeColor=none;fillColor=none;" vertex="1" parent="1">
          <mxGeometry x="314" y="148" width="50" height="30" as="geometry" />
        </mxCell>
        <mxCell id="zOYn-aUXPlLyW62DlDA4-14" value="소유자" style="text;html=1;align=center;verticalAlign=middle;resizable=0;points=[];autosize=1;strokeColor=none;fillColor=none;" vertex="1" parent="1">
          <mxGeometry x="272" y="178" width="60" height="30" as="geometry" />
        </mxCell>
        <mxCell id="zOYn-aUXPlLyW62DlDA4-15" value="소유물" style="text;html=1;align=center;verticalAlign=middle;resizable=0;points=[];autosize=1;strokeColor=none;fillColor=none;" vertex="1" parent="1">
          <mxGeometry x="348" y="179" width="60" height="30" as="geometry" />
        </mxCell>
        <mxCell id="zOYn-aUXPlLyW62DlDA4-16" value="0...*" style="text;html=1;align=center;verticalAlign=middle;resizable=0;points=[];autosize=1;strokeColor=none;fillColor=none;" vertex="1" parent="1">
          <mxGeometry x="274" y="198" width="40" height="30" as="geometry" />
        </mxCell>
        <mxCell id="zOYn-aUXPlLyW62DlDA4-17" value="1" style="text;html=1;align=center;verticalAlign=middle;resizable=0;points=[];autosize=1;strokeColor=none;fillColor=none;" vertex="1" parent="1">
          <mxGeometry x="370" y="199" width="30" height="30" as="geometry" />
        </mxCell>
        <mxCell id="zOYn-aUXPlLyW62DlDA4-18" style="edgeStyle=orthogonalEdgeStyle;rounded=0;orthogonalLoop=1;jettySize=auto;html=1;endArrow=none;startFill=0;" edge="1" parent="1" source="zOYn-aUXPlLyW62DlDA4-19" target="zOYn-aUXPlLyW62DlDA4-24">
          <mxGeometry relative="1" as="geometry" />
        </mxCell>
        <mxCell id="zOYn-aUXPlLyW62DlDA4-19" value="Person" style="swimlane;fontStyle=1;align=center;verticalAlign=top;childLayout=stackLayout;horizontal=1;startSize=26;horizontalStack=0;resizeParent=1;resizeParentMax=0;resizeLast=0;collapsible=1;marginBottom=0;whiteSpace=wrap;html=1;" vertex="1" parent="1">
          <mxGeometry x="120" y="330" width="160" height="86" as="geometry" />
        </mxCell>
        <mxCell id="zOYn-aUXPlLyW62DlDA4-20" value="+ field: type" style="text;strokeColor=none;fillColor=none;align=left;verticalAlign=top;spacingLeft=4;spacingRight=4;overflow=hidden;rotatable=0;points=[[0,0.5],[1,0.5]];portConstraint=eastwest;whiteSpace=wrap;html=1;" vertex="1" parent="zOYn-aUXPlLyW62DlDA4-19">
          <mxGeometry y="26" width="160" height="26" as="geometry" />
        </mxCell>
        <mxCell id="zOYn-aUXPlLyW62DlDA4-21" value="" style="line;strokeWidth=1;fillColor=none;align=left;verticalAlign=middle;spacingTop=-1;spacingLeft=3;spacingRight=3;rotatable=0;labelPosition=right;points=[];portConstraint=eastwest;strokeColor=inherit;" vertex="1" parent="zOYn-aUXPlLyW62DlDA4-19">
          <mxGeometry y="52" width="160" height="8" as="geometry" />
        </mxCell>
        <mxCell id="zOYn-aUXPlLyW62DlDA4-22" value="+ method(type): type" style="text;strokeColor=none;fillColor=none;align=left;verticalAlign=top;spacingLeft=4;spacingRight=4;overflow=hidden;rotatable=0;points=[[0,0.5],[1,0.5]];portConstraint=eastwest;whiteSpace=wrap;html=1;" vertex="1" parent="zOYn-aUXPlLyW62DlDA4-19">
          <mxGeometry y="60" width="160" height="26" as="geometry" />
        </mxCell>
        <mxCell id="zOYn-aUXPlLyW62DlDA4-23" value="Computer" style="swimlane;fontStyle=1;align=center;verticalAlign=top;childLayout=stackLayout;horizontal=1;startSize=26;horizontalStack=0;resizeParent=1;resizeParentMax=0;resizeLast=0;collapsible=1;marginBottom=0;whiteSpace=wrap;html=1;" vertex="1" parent="1">
          <mxGeometry x="399" y="331" width="160" height="86" as="geometry" />
        </mxCell>
        <mxCell id="zOYn-aUXPlLyW62DlDA4-24" value="+ field: type" style="text;strokeColor=none;fillColor=none;align=left;verticalAlign=top;spacingLeft=4;spacingRight=4;overflow=hidden;rotatable=0;points=[[0,0.5],[1,0.5]];portConstraint=eastwest;whiteSpace=wrap;html=1;" vertex="1" parent="zOYn-aUXPlLyW62DlDA4-23">
          <mxGeometry y="26" width="160" height="26" as="geometry" />
        </mxCell>
        <mxCell id="zOYn-aUXPlLyW62DlDA4-25" value="" style="line;strokeWidth=1;fillColor=none;align=left;verticalAlign=middle;spacingTop=-1;spacingLeft=3;spacingRight=3;rotatable=0;labelPosition=right;points=[];portConstraint=eastwest;strokeColor=inherit;" vertex="1" parent="zOYn-aUXPlLyW62DlDA4-23">
          <mxGeometry y="52" width="160" height="8" as="geometry" />
        </mxCell>
        <mxCell id="zOYn-aUXPlLyW62DlDA4-26" value="+ method(type): type" style="text;strokeColor=none;fillColor=none;align=left;verticalAlign=top;spacingLeft=4;spacingRight=4;overflow=hidden;rotatable=0;points=[[0,0.5],[1,0.5]];portConstraint=eastwest;whiteSpace=wrap;html=1;" vertex="1" parent="zOYn-aUXPlLyW62DlDA4-23">
          <mxGeometry y="60" width="160" height="26" as="geometry" />
        </mxCell>
        <mxCell id="zOYn-aUXPlLyW62DlDA4-27" value="사람이 컴퓨터를 구매한다" style="text;html=1;align=center;verticalAlign=middle;resizable=0;points=[];autosize=1;strokeColor=none;fillColor=none;" vertex="1" parent="1">
          <mxGeometry x="120" y="290" width="160" height="30" as="geometry" />
        </mxCell>
        <mxCell id="zOYn-aUXPlLyW62DlDA4-28" value="구매" style="text;html=1;align=center;verticalAlign=middle;resizable=0;points=[];autosize=1;strokeColor=none;fillColor=none;" vertex="1" parent="1">
          <mxGeometry x="315" y="318" width="50" height="30" as="geometry" />
        </mxCell>
        <mxCell id="zOYn-aUXPlLyW62DlDA4-29" value="구매자" style="text;html=1;align=center;verticalAlign=middle;resizable=0;points=[];autosize=1;strokeColor=none;fillColor=none;" vertex="1" parent="1">
          <mxGeometry x="272" y="348" width="60" height="30" as="geometry" />
        </mxCell>
        <mxCell id="zOYn-aUXPlLyW62DlDA4-30" value="상품" style="text;html=1;align=center;verticalAlign=middle;resizable=0;points=[];autosize=1;strokeColor=none;fillColor=none;" vertex="1" parent="1">
          <mxGeometry x="353" y="349" width="50" height="30" as="geometry" />
        </mxCell>
        <mxCell id="zOYn-aUXPlLyW62DlDA4-31" value="0...*" style="text;html=1;align=center;verticalAlign=middle;resizable=0;points=[];autosize=1;strokeColor=none;fillColor=none;" vertex="1" parent="1">
          <mxGeometry x="273" y="368" width="40" height="30" as="geometry" />
        </mxCell>
        <mxCell id="zOYn-aUXPlLyW62DlDA4-32" value="0,1" style="text;html=1;align=center;verticalAlign=middle;resizable=0;points=[];autosize=1;strokeColor=none;fillColor=none;" vertex="1" parent="1">
          <mxGeometry x="365" y="369" width="40" height="30" as="geometry" />
        </mxCell>
        <mxCell id="zOYn-aUXPlLyW62DlDA4-34" style="edgeStyle=orthogonalEdgeStyle;rounded=0;orthogonalLoop=1;jettySize=auto;html=1;endArrow=none;startFill=0;" edge="1" parent="1" source="zOYn-aUXPlLyW62DlDA4-35" target="zOYn-aUXPlLyW62DlDA4-40">
          <mxGeometry relative="1" as="geometry" />
        </mxCell>
        <mxCell id="zOYn-aUXPlLyW62DlDA4-35" value="Student" style="swimlane;fontStyle=1;align=center;verticalAlign=top;childLayout=stackLayout;horizontal=1;startSize=26;horizontalStack=0;resizeParent=1;resizeParentMax=0;resizeLast=0;collapsible=1;marginBottom=0;whiteSpace=wrap;html=1;" vertex="1" parent="1">
          <mxGeometry x="119.5" y="490" width="160" height="86" as="geometry" />
        </mxCell>
        <mxCell id="zOYn-aUXPlLyW62DlDA4-36" value="+ field: type" style="text;strokeColor=none;fillColor=none;align=left;verticalAlign=top;spacingLeft=4;spacingRight=4;overflow=hidden;rotatable=0;points=[[0,0.5],[1,0.5]];portConstraint=eastwest;whiteSpace=wrap;html=1;" vertex="1" parent="zOYn-aUXPlLyW62DlDA4-35">
          <mxGeometry y="26" width="160" height="26" as="geometry" />
        </mxCell>
        <mxCell id="zOYn-aUXPlLyW62DlDA4-37" value="" style="line;strokeWidth=1;fillColor=none;align=left;verticalAlign=middle;spacingTop=-1;spacingLeft=3;spacingRight=3;rotatable=0;labelPosition=right;points=[];portConstraint=eastwest;strokeColor=inherit;" vertex="1" parent="zOYn-aUXPlLyW62DlDA4-35">
          <mxGeometry y="52" width="160" height="8" as="geometry" />
        </mxCell>
        <mxCell id="zOYn-aUXPlLyW62DlDA4-38" value="+ method(type): type" style="text;strokeColor=none;fillColor=none;align=left;verticalAlign=top;spacingLeft=4;spacingRight=4;overflow=hidden;rotatable=0;points=[[0,0.5],[1,0.5]];portConstraint=eastwest;whiteSpace=wrap;html=1;" vertex="1" parent="zOYn-aUXPlLyW62DlDA4-35">
          <mxGeometry y="60" width="160" height="26" as="geometry" />
        </mxCell>
        <mxCell id="zOYn-aUXPlLyW62DlDA4-39" value="Lecture" style="swimlane;fontStyle=1;align=center;verticalAlign=top;childLayout=stackLayout;horizontal=1;startSize=26;horizontalStack=0;resizeParent=1;resizeParentMax=0;resizeLast=0;collapsible=1;marginBottom=0;whiteSpace=wrap;html=1;" vertex="1" parent="1">
          <mxGeometry x="398.5" y="494" width="160" height="86" as="geometry" />
        </mxCell>
        <mxCell id="zOYn-aUXPlLyW62DlDA4-40" value="+ field: type" style="text;strokeColor=none;fillColor=none;align=left;verticalAlign=top;spacingLeft=4;spacingRight=4;overflow=hidden;rotatable=0;points=[[0,0.5],[1,0.5]];portConstraint=eastwest;whiteSpace=wrap;html=1;" vertex="1" parent="zOYn-aUXPlLyW62DlDA4-39">
          <mxGeometry y="26" width="160" height="26" as="geometry" />
        </mxCell>
        <mxCell id="zOYn-aUXPlLyW62DlDA4-41" value="" style="line;strokeWidth=1;fillColor=none;align=left;verticalAlign=middle;spacingTop=-1;spacingLeft=3;spacingRight=3;rotatable=0;labelPosition=right;points=[];portConstraint=eastwest;strokeColor=inherit;" vertex="1" parent="zOYn-aUXPlLyW62DlDA4-39">
          <mxGeometry y="52" width="160" height="8" as="geometry" />
        </mxCell>
        <mxCell id="zOYn-aUXPlLyW62DlDA4-42" value="+ method(type): type" style="text;strokeColor=none;fillColor=none;align=left;verticalAlign=top;spacingLeft=4;spacingRight=4;overflow=hidden;rotatable=0;points=[[0,0.5],[1,0.5]];portConstraint=eastwest;whiteSpace=wrap;html=1;" vertex="1" parent="zOYn-aUXPlLyW62DlDA4-39">
          <mxGeometry y="60" width="160" height="26" as="geometry" />
        </mxCell>
        <mxCell id="zOYn-aUXPlLyW62DlDA4-43" value="학생이 수강신청을 한다" style="text;html=1;align=center;verticalAlign=middle;resizable=0;points=[];autosize=1;strokeColor=none;fillColor=none;" vertex="1" parent="1">
          <mxGeometry x="124.5" y="450" width="150" height="30" as="geometry" />
        </mxCell>
        <mxCell id="zOYn-aUXPlLyW62DlDA4-44" value="수강신청" style="text;html=1;align=center;verticalAlign=middle;resizable=0;points=[];autosize=1;strokeColor=none;fillColor=none;" vertex="1" parent="1">
          <mxGeometry x="304.5" y="478" width="70" height="30" as="geometry" />
        </mxCell>
        <mxCell id="zOYn-aUXPlLyW62DlDA4-45" value="수강생" style="text;html=1;align=center;verticalAlign=middle;resizable=0;points=[];autosize=1;strokeColor=none;fillColor=none;" vertex="1" parent="1">
          <mxGeometry x="271.5" y="508" width="60" height="30" as="geometry" />
        </mxCell>
        <mxCell id="zOYn-aUXPlLyW62DlDA4-46" value="수업" style="text;html=1;align=center;verticalAlign=middle;resizable=0;points=[];autosize=1;strokeColor=none;fillColor=none;" vertex="1" parent="1">
          <mxGeometry x="352.5" y="509" width="50" height="30" as="geometry" />
        </mxCell>
        <mxCell id="zOYn-aUXPlLyW62DlDA4-47" value="0...*" style="text;html=1;align=center;verticalAlign=middle;resizable=0;points=[];autosize=1;strokeColor=none;fillColor=none;" vertex="1" parent="1">
          <mxGeometry x="272.5" y="528" width="40" height="30" as="geometry" />
        </mxCell>
        <mxCell id="zOYn-aUXPlLyW62DlDA4-48" value="0...*" style="text;html=1;align=center;verticalAlign=middle;resizable=0;points=[];autosize=1;strokeColor=none;fillColor=none;" vertex="1" parent="1">
          <mxGeometry x="364.5" y="529" width="40" height="30" as="geometry" />
        </mxCell>
        <mxCell id="zOYn-aUXPlLyW62DlDA4-80" style="edgeStyle=orthogonalEdgeStyle;rounded=0;orthogonalLoop=1;jettySize=auto;html=1;entryX=0;entryY=0.5;entryDx=0;entryDy=0;endArrow=none;startFill=0;" edge="1" parent="1" source="zOYn-aUXPlLyW62DlDA4-58" target="zOYn-aUXPlLyW62DlDA4-72">
          <mxGeometry relative="1" as="geometry" />
        </mxCell>
        <mxCell id="zOYn-aUXPlLyW62DlDA4-58" value="Student" style="swimlane;fontStyle=1;align=center;verticalAlign=top;childLayout=stackLayout;horizontal=1;startSize=26;horizontalStack=0;resizeParent=1;resizeParentMax=0;resizeLast=0;collapsible=1;marginBottom=0;whiteSpace=wrap;html=1;" vertex="1" parent="1">
          <mxGeometry x="119.5" y="637" width="160" height="86" as="geometry" />
        </mxCell>
        <mxCell id="zOYn-aUXPlLyW62DlDA4-59" value="+ field: type" style="text;strokeColor=none;fillColor=none;align=left;verticalAlign=top;spacingLeft=4;spacingRight=4;overflow=hidden;rotatable=0;points=[[0,0.5],[1,0.5]];portConstraint=eastwest;whiteSpace=wrap;html=1;" vertex="1" parent="zOYn-aUXPlLyW62DlDA4-58">
          <mxGeometry y="26" width="160" height="26" as="geometry" />
        </mxCell>
        <mxCell id="zOYn-aUXPlLyW62DlDA4-60" value="" style="line;strokeWidth=1;fillColor=none;align=left;verticalAlign=middle;spacingTop=-1;spacingLeft=3;spacingRight=3;rotatable=0;labelPosition=right;points=[];portConstraint=eastwest;strokeColor=inherit;" vertex="1" parent="zOYn-aUXPlLyW62DlDA4-58">
          <mxGeometry y="52" width="160" height="8" as="geometry" />
        </mxCell>
        <mxCell id="zOYn-aUXPlLyW62DlDA4-61" value="+ method(type): type" style="text;strokeColor=none;fillColor=none;align=left;verticalAlign=top;spacingLeft=4;spacingRight=4;overflow=hidden;rotatable=0;points=[[0,0.5],[1,0.5]];portConstraint=eastwest;whiteSpace=wrap;html=1;" vertex="1" parent="zOYn-aUXPlLyW62DlDA4-58">
          <mxGeometry y="60" width="160" height="26" as="geometry" />
        </mxCell>
        <mxCell id="zOYn-aUXPlLyW62DlDA4-62" value="Lecture" style="swimlane;fontStyle=1;align=center;verticalAlign=top;childLayout=stackLayout;horizontal=1;startSize=26;horizontalStack=0;resizeParent=1;resizeParentMax=0;resizeLast=0;collapsible=1;marginBottom=0;whiteSpace=wrap;html=1;" vertex="1" parent="1">
          <mxGeometry x="626" y="640" width="160" height="86" as="geometry" />
        </mxCell>
        <mxCell id="zOYn-aUXPlLyW62DlDA4-63" value="+ field: type" style="text;strokeColor=none;fillColor=none;align=left;verticalAlign=top;spacingLeft=4;spacingRight=4;overflow=hidden;rotatable=0;points=[[0,0.5],[1,0.5]];portConstraint=eastwest;whiteSpace=wrap;html=1;" vertex="1" parent="zOYn-aUXPlLyW62DlDA4-62">
          <mxGeometry y="26" width="160" height="26" as="geometry" />
        </mxCell>
        <mxCell id="zOYn-aUXPlLyW62DlDA4-64" value="" style="line;strokeWidth=1;fillColor=none;align=left;verticalAlign=middle;spacingTop=-1;spacingLeft=3;spacingRight=3;rotatable=0;labelPosition=right;points=[];portConstraint=eastwest;strokeColor=inherit;" vertex="1" parent="zOYn-aUXPlLyW62DlDA4-62">
          <mxGeometry y="52" width="160" height="8" as="geometry" />
        </mxCell>
        <mxCell id="zOYn-aUXPlLyW62DlDA4-65" value="+ method(type): type" style="text;strokeColor=none;fillColor=none;align=left;verticalAlign=top;spacingLeft=4;spacingRight=4;overflow=hidden;rotatable=0;points=[[0,0.5],[1,0.5]];portConstraint=eastwest;whiteSpace=wrap;html=1;" vertex="1" parent="zOYn-aUXPlLyW62DlDA4-62">
          <mxGeometry y="60" width="160" height="26" as="geometry" />
        </mxCell>
        <mxCell id="zOYn-aUXPlLyW62DlDA4-66" value="수강생" style="text;html=1;align=center;verticalAlign=middle;resizable=0;points=[];autosize=1;strokeColor=none;fillColor=none;" vertex="1" parent="1">
          <mxGeometry x="270" y="656" width="60" height="30" as="geometry" />
        </mxCell>
        <mxCell id="zOYn-aUXPlLyW62DlDA4-67" value="수업" style="text;html=1;align=center;verticalAlign=middle;resizable=0;points=[];autosize=1;strokeColor=none;fillColor=none;" vertex="1" parent="1">
          <mxGeometry x="577" y="659" width="50" height="30" as="geometry" />
        </mxCell>
        <mxCell id="zOYn-aUXPlLyW62DlDA4-68" value="1" style="text;html=1;align=center;verticalAlign=middle;resizable=0;points=[];autosize=1;strokeColor=none;fillColor=none;" vertex="1" parent="1">
          <mxGeometry x="277.5" y="676.5" width="30" height="30" as="geometry" />
        </mxCell>
        <mxCell id="zOYn-aUXPlLyW62DlDA4-69" value="0...*" style="text;html=1;align=center;verticalAlign=middle;resizable=0;points=[];autosize=1;strokeColor=none;fillColor=none;" vertex="1" parent="1">
          <mxGeometry x="592" y="681" width="40" height="30" as="geometry" />
        </mxCell>
        <mxCell id="zOYn-aUXPlLyW62DlDA4-79" style="edgeStyle=orthogonalEdgeStyle;rounded=0;orthogonalLoop=1;jettySize=auto;html=1;entryX=0.008;entryY=0.672;entryDx=0;entryDy=0;entryPerimeter=0;endArrow=none;startFill=0;" edge="1" parent="1">
          <mxGeometry relative="1" as="geometry">
            <mxPoint x="627.28" y="682.472" as="targetPoint" />
            <mxPoint x="538" y="682" as="sourcePoint" />
          </mxGeometry>
        </mxCell>
        <mxCell id="zOYn-aUXPlLyW62DlDA4-71" value="Registration" style="swimlane;fontStyle=1;align=center;verticalAlign=top;childLayout=stackLayout;horizontal=1;startSize=26;horizontalStack=0;resizeParent=1;resizeParentMax=0;resizeLast=0;collapsible=1;marginBottom=0;whiteSpace=wrap;html=1;" vertex="1" parent="1">
          <mxGeometry x="378" y="641" width="160" height="86" as="geometry" />
        </mxCell>
        <mxCell id="zOYn-aUXPlLyW62DlDA4-72" value="+ field: type" style="text;strokeColor=none;fillColor=none;align=left;verticalAlign=top;spacingLeft=4;spacingRight=4;overflow=hidden;rotatable=0;points=[[0,0.5],[1,0.5]];portConstraint=eastwest;whiteSpace=wrap;html=1;" vertex="1" parent="zOYn-aUXPlLyW62DlDA4-71">
          <mxGeometry y="26" width="160" height="26" as="geometry" />
        </mxCell>
        <mxCell id="zOYn-aUXPlLyW62DlDA4-73" value="" style="line;strokeWidth=1;fillColor=none;align=left;verticalAlign=middle;spacingTop=-1;spacingLeft=3;spacingRight=3;rotatable=0;labelPosition=right;points=[];portConstraint=eastwest;strokeColor=inherit;" vertex="1" parent="zOYn-aUXPlLyW62DlDA4-71">
          <mxGeometry y="52" width="160" height="8" as="geometry" />
        </mxCell>
        <mxCell id="zOYn-aUXPlLyW62DlDA4-74" value="+ method(type): type" style="text;strokeColor=none;fillColor=none;align=left;verticalAlign=top;spacingLeft=4;spacingRight=4;overflow=hidden;rotatable=0;points=[[0,0.5],[1,0.5]];portConstraint=eastwest;whiteSpace=wrap;html=1;" vertex="1" parent="zOYn-aUXPlLyW62DlDA4-71">
          <mxGeometry y="60" width="160" height="26" as="geometry" />
        </mxCell>
        <mxCell id="zOYn-aUXPlLyW62DlDA4-76" value="0...*" style="text;html=1;align=center;verticalAlign=middle;resizable=0;points=[];autosize=1;strokeColor=none;fillColor=none;" vertex="1" parent="1">
          <mxGeometry x="344" y="674.5" width="40" height="30" as="geometry" />
        </mxCell>
        <mxCell id="zOYn-aUXPlLyW62DlDA4-77" value="0...*" style="text;html=1;align=center;verticalAlign=middle;resizable=0;points=[];autosize=1;strokeColor=none;fillColor=none;" vertex="1" parent="1">
          <mxGeometry x="532" y="685" width="40" height="30" as="geometry" />
        </mxCell>
        <mxCell id="zOYn-aUXPlLyW62DlDA4-81" style="edgeStyle=orthogonalEdgeStyle;rounded=0;orthogonalLoop=1;jettySize=auto;html=1;endArrow=none;startFill=0;" edge="1" parent="1" source="zOYn-aUXPlLyW62DlDA4-82" target="zOYn-aUXPlLyW62DlDA4-87">
          <mxGeometry relative="1" as="geometry" />
        </mxCell>
        <mxCell id="zOYn-aUXPlLyW62DlDA4-82" value="Customer" style="swimlane;fontStyle=1;align=center;verticalAlign=top;childLayout=stackLayout;horizontal=1;startSize=26;horizontalStack=0;resizeParent=1;resizeParentMax=0;resizeLast=0;collapsible=1;marginBottom=0;whiteSpace=wrap;html=1;" vertex="1" parent="1">
          <mxGeometry x="120" y="820" width="160" height="86" as="geometry" />
        </mxCell>
        <mxCell id="zOYn-aUXPlLyW62DlDA4-83" value="+ field: type" style="text;strokeColor=none;fillColor=none;align=left;verticalAlign=top;spacingLeft=4;spacingRight=4;overflow=hidden;rotatable=0;points=[[0,0.5],[1,0.5]];portConstraint=eastwest;whiteSpace=wrap;html=1;" vertex="1" parent="zOYn-aUXPlLyW62DlDA4-82">
          <mxGeometry y="26" width="160" height="26" as="geometry" />
        </mxCell>
        <mxCell id="zOYn-aUXPlLyW62DlDA4-84" value="" style="line;strokeWidth=1;fillColor=none;align=left;verticalAlign=middle;spacingTop=-1;spacingLeft=3;spacingRight=3;rotatable=0;labelPosition=right;points=[];portConstraint=eastwest;strokeColor=inherit;" vertex="1" parent="zOYn-aUXPlLyW62DlDA4-82">
          <mxGeometry y="52" width="160" height="8" as="geometry" />
        </mxCell>
        <mxCell id="zOYn-aUXPlLyW62DlDA4-85" value="+ method(type): type" style="text;strokeColor=none;fillColor=none;align=left;verticalAlign=top;spacingLeft=4;spacingRight=4;overflow=hidden;rotatable=0;points=[[0,0.5],[1,0.5]];portConstraint=eastwest;whiteSpace=wrap;html=1;" vertex="1" parent="zOYn-aUXPlLyW62DlDA4-82">
          <mxGeometry y="60" width="160" height="26" as="geometry" />
        </mxCell>
        <mxCell id="zOYn-aUXPlLyW62DlDA4-86" value="Porduct" style="swimlane;fontStyle=1;align=center;verticalAlign=top;childLayout=stackLayout;horizontal=1;startSize=26;horizontalStack=0;resizeParent=1;resizeParentMax=0;resizeLast=0;collapsible=1;marginBottom=0;whiteSpace=wrap;html=1;" vertex="1" parent="1">
          <mxGeometry x="399" y="824" width="160" height="86" as="geometry" />
        </mxCell>
        <mxCell id="zOYn-aUXPlLyW62DlDA4-87" value="+ field: type" style="text;strokeColor=none;fillColor=none;align=left;verticalAlign=top;spacingLeft=4;spacingRight=4;overflow=hidden;rotatable=0;points=[[0,0.5],[1,0.5]];portConstraint=eastwest;whiteSpace=wrap;html=1;" vertex="1" parent="zOYn-aUXPlLyW62DlDA4-86">
          <mxGeometry y="26" width="160" height="26" as="geometry" />
        </mxCell>
        <mxCell id="zOYn-aUXPlLyW62DlDA4-88" value="" style="line;strokeWidth=1;fillColor=none;align=left;verticalAlign=middle;spacingTop=-1;spacingLeft=3;spacingRight=3;rotatable=0;labelPosition=right;points=[];portConstraint=eastwest;strokeColor=inherit;" vertex="1" parent="zOYn-aUXPlLyW62DlDA4-86">
          <mxGeometry y="52" width="160" height="8" as="geometry" />
        </mxCell>
        <mxCell id="zOYn-aUXPlLyW62DlDA4-89" value="+ method(type): type" style="text;strokeColor=none;fillColor=none;align=left;verticalAlign=top;spacingLeft=4;spacingRight=4;overflow=hidden;rotatable=0;points=[[0,0.5],[1,0.5]];portConstraint=eastwest;whiteSpace=wrap;html=1;" vertex="1" parent="zOYn-aUXPlLyW62DlDA4-86">
          <mxGeometry y="60" width="160" height="26" as="geometry" />
        </mxCell>
        <mxCell id="zOYn-aUXPlLyW62DlDA4-90" value="고객이 물품을 산다" style="text;html=1;align=center;verticalAlign=middle;resizable=0;points=[];autosize=1;strokeColor=none;fillColor=none;" vertex="1" parent="1">
          <mxGeometry x="135" y="780" width="130" height="30" as="geometry" />
        </mxCell>
        <mxCell id="zOYn-aUXPlLyW62DlDA4-94" value="0...*" style="text;html=1;align=center;verticalAlign=middle;resizable=0;points=[];autosize=1;strokeColor=none;fillColor=none;" vertex="1" parent="1">
          <mxGeometry x="273" y="858" width="40" height="30" as="geometry" />
        </mxCell>
        <mxCell id="zOYn-aUXPlLyW62DlDA4-95" value="0...*" style="text;html=1;align=center;verticalAlign=middle;resizable=0;points=[];autosize=1;strokeColor=none;fillColor=none;" vertex="1" parent="1">
          <mxGeometry x="365" y="859" width="40" height="30" as="geometry" />
        </mxCell>
        <mxCell id="zOYn-aUXPlLyW62DlDA4-96" style="edgeStyle=orthogonalEdgeStyle;rounded=0;orthogonalLoop=1;jettySize=auto;html=1;endArrow=none;startFill=0;" edge="1" parent="1" source="zOYn-aUXPlLyW62DlDA4-97" target="zOYn-aUXPlLyW62DlDA4-102">
          <mxGeometry relative="1" as="geometry" />
        </mxCell>
        <mxCell id="zOYn-aUXPlLyW62DlDA4-97" value="Customer" style="swimlane;fontStyle=1;align=center;verticalAlign=top;childLayout=stackLayout;horizontal=1;startSize=26;horizontalStack=0;resizeParent=1;resizeParentMax=0;resizeLast=0;collapsible=1;marginBottom=0;whiteSpace=wrap;html=1;" vertex="1" parent="1">
          <mxGeometry x="120" y="945" width="160" height="86" as="geometry" />
        </mxCell>
        <mxCell id="zOYn-aUXPlLyW62DlDA4-98" value="+ field: type" style="text;strokeColor=none;fillColor=none;align=left;verticalAlign=top;spacingLeft=4;spacingRight=4;overflow=hidden;rotatable=0;points=[[0,0.5],[1,0.5]];portConstraint=eastwest;whiteSpace=wrap;html=1;" vertex="1" parent="zOYn-aUXPlLyW62DlDA4-97">
          <mxGeometry y="26" width="160" height="26" as="geometry" />
        </mxCell>
        <mxCell id="zOYn-aUXPlLyW62DlDA4-99" value="" style="line;strokeWidth=1;fillColor=none;align=left;verticalAlign=middle;spacingTop=-1;spacingLeft=3;spacingRight=3;rotatable=0;labelPosition=right;points=[];portConstraint=eastwest;strokeColor=inherit;" vertex="1" parent="zOYn-aUXPlLyW62DlDA4-97">
          <mxGeometry y="52" width="160" height="8" as="geometry" />
        </mxCell>
        <mxCell id="zOYn-aUXPlLyW62DlDA4-100" value="+ method(type): type" style="text;strokeColor=none;fillColor=none;align=left;verticalAlign=top;spacingLeft=4;spacingRight=4;overflow=hidden;rotatable=0;points=[[0,0.5],[1,0.5]];portConstraint=eastwest;whiteSpace=wrap;html=1;" vertex="1" parent="zOYn-aUXPlLyW62DlDA4-97">
          <mxGeometry y="60" width="160" height="26" as="geometry" />
        </mxCell>
        <mxCell id="zOYn-aUXPlLyW62DlDA4-118" value="" style="edgeStyle=orthogonalEdgeStyle;rounded=0;orthogonalLoop=1;jettySize=auto;html=1;entryX=0.008;entryY=0.776;entryDx=0;entryDy=0;entryPerimeter=0;endArrow=none;startFill=0;" edge="1" parent="1" source="zOYn-aUXPlLyW62DlDA4-101" target="zOYn-aUXPlLyW62DlDA4-112">
          <mxGeometry relative="1" as="geometry" />
        </mxCell>
        <mxCell id="zOYn-aUXPlLyW62DlDA4-101" value="Order" style="swimlane;fontStyle=1;align=center;verticalAlign=top;childLayout=stackLayout;horizontal=1;startSize=26;horizontalStack=0;resizeParent=1;resizeParentMax=0;resizeLast=0;collapsible=1;marginBottom=0;whiteSpace=wrap;html=1;" vertex="1" parent="1">
          <mxGeometry x="399" y="949" width="160" height="86" as="geometry" />
        </mxCell>
        <mxCell id="zOYn-aUXPlLyW62DlDA4-102" value="+ field: type" style="text;strokeColor=none;fillColor=none;align=left;verticalAlign=top;spacingLeft=4;spacingRight=4;overflow=hidden;rotatable=0;points=[[0,0.5],[1,0.5]];portConstraint=eastwest;whiteSpace=wrap;html=1;" vertex="1" parent="zOYn-aUXPlLyW62DlDA4-101">
          <mxGeometry y="26" width="160" height="26" as="geometry" />
        </mxCell>
        <mxCell id="zOYn-aUXPlLyW62DlDA4-103" value="" style="line;strokeWidth=1;fillColor=none;align=left;verticalAlign=middle;spacingTop=-1;spacingLeft=3;spacingRight=3;rotatable=0;labelPosition=right;points=[];portConstraint=eastwest;strokeColor=inherit;" vertex="1" parent="zOYn-aUXPlLyW62DlDA4-101">
          <mxGeometry y="52" width="160" height="8" as="geometry" />
        </mxCell>
        <mxCell id="zOYn-aUXPlLyW62DlDA4-104" value="+ method(type): type" style="text;strokeColor=none;fillColor=none;align=left;verticalAlign=top;spacingLeft=4;spacingRight=4;overflow=hidden;rotatable=0;points=[[0,0.5],[1,0.5]];portConstraint=eastwest;whiteSpace=wrap;html=1;" vertex="1" parent="zOYn-aUXPlLyW62DlDA4-101">
          <mxGeometry y="60" width="160" height="26" as="geometry" />
        </mxCell>
        <mxCell id="zOYn-aUXPlLyW62DlDA4-109" value="1" style="text;html=1;align=center;verticalAlign=middle;resizable=0;points=[];autosize=1;strokeColor=none;fillColor=none;" vertex="1" parent="1">
          <mxGeometry x="278" y="983" width="30" height="30" as="geometry" />
        </mxCell>
        <mxCell id="zOYn-aUXPlLyW62DlDA4-110" value="0...*" style="text;html=1;align=center;verticalAlign=middle;resizable=0;points=[];autosize=1;strokeColor=none;fillColor=none;" vertex="1" parent="1">
          <mxGeometry x="365" y="984" width="40" height="30" as="geometry" />
        </mxCell>
        <mxCell id="zOYn-aUXPlLyW62DlDA4-111" value="Product" style="swimlane;fontStyle=1;align=center;verticalAlign=top;childLayout=stackLayout;horizontal=1;startSize=26;horizontalStack=0;resizeParent=1;resizeParentMax=0;resizeLast=0;collapsible=1;marginBottom=0;whiteSpace=wrap;html=1;" vertex="1" parent="1">
          <mxGeometry x="643" y="946" width="160" height="86" as="geometry" />
        </mxCell>
        <mxCell id="zOYn-aUXPlLyW62DlDA4-112" value="+ field: type" style="text;strokeColor=none;fillColor=none;align=left;verticalAlign=top;spacingLeft=4;spacingRight=4;overflow=hidden;rotatable=0;points=[[0,0.5],[1,0.5]];portConstraint=eastwest;whiteSpace=wrap;html=1;" vertex="1" parent="zOYn-aUXPlLyW62DlDA4-111">
          <mxGeometry y="26" width="160" height="26" as="geometry" />
        </mxCell>
        <mxCell id="zOYn-aUXPlLyW62DlDA4-113" value="" style="line;strokeWidth=1;fillColor=none;align=left;verticalAlign=middle;spacingTop=-1;spacingLeft=3;spacingRight=3;rotatable=0;labelPosition=right;points=[];portConstraint=eastwest;strokeColor=inherit;" vertex="1" parent="zOYn-aUXPlLyW62DlDA4-111">
          <mxGeometry y="52" width="160" height="8" as="geometry" />
        </mxCell>
        <mxCell id="zOYn-aUXPlLyW62DlDA4-114" value="+ method(type): type" style="text;strokeColor=none;fillColor=none;align=left;verticalAlign=top;spacingLeft=4;spacingRight=4;overflow=hidden;rotatable=0;points=[[0,0.5],[1,0.5]];portConstraint=eastwest;whiteSpace=wrap;html=1;" vertex="1" parent="zOYn-aUXPlLyW62DlDA4-111">
          <mxGeometry y="60" width="160" height="26" as="geometry" />
        </mxCell>
        <mxCell id="zOYn-aUXPlLyW62DlDA4-115" value="0...*" style="text;html=1;align=center;verticalAlign=middle;resizable=0;points=[];autosize=1;strokeColor=none;fillColor=none;" vertex="1" parent="1">
          <mxGeometry x="559" y="989" width="40" height="30" as="geometry" />
        </mxCell>
        <mxCell id="zOYn-aUXPlLyW62DlDA4-116" value="1" style="text;html=1;align=center;verticalAlign=middle;resizable=0;points=[];autosize=1;strokeColor=none;fillColor=none;" vertex="1" parent="1">
          <mxGeometry x="608" y="989" width="30" height="30" as="geometry" />
        </mxCell>
        <mxCell id="zOYn-aUXPlLyW62DlDA4-119" value="의존 관계" style="text;html=1;align=center;verticalAlign=middle;resizable=0;points=[];autosize=1;strokeColor=none;fillColor=none;" vertex="1" parent="1">
          <mxGeometry x="1040" y="118" width="70" height="30" as="geometry" />
        </mxCell>
        <mxCell id="zOYn-aUXPlLyW62DlDA4-120" value="연관 관계" style="shape=umlFrame;whiteSpace=wrap;html=1;pointerEvents=0;" vertex="1" parent="1">
          <mxGeometry x="60" y="70" width="770" height="1010" as="geometry" />
        </mxCell>
        <mxCell id="zOYn-aUXPlLyW62DlDA4-121" style="edgeStyle=orthogonalEdgeStyle;rounded=0;orthogonalLoop=1;jettySize=auto;html=1;entryX=0;entryY=0.5;entryDx=0;entryDy=0;endArrow=open;startFill=0;dashed=1;endFill=0;" edge="1" parent="1" source="zOYn-aUXPlLyW62DlDA4-122" target="zOYn-aUXPlLyW62DlDA4-127">
          <mxGeometry relative="1" as="geometry" />
        </mxCell>
        <mxCell id="zOYn-aUXPlLyW62DlDA4-137" value="USE" style="edgeLabel;html=1;align=center;verticalAlign=middle;resizable=0;points=[];" vertex="1" connectable="0" parent="zOYn-aUXPlLyW62DlDA4-121">
          <mxGeometry x="0.0337" relative="1" as="geometry">
            <mxPoint as="offset" />
          </mxGeometry>
        </mxCell>
        <mxCell id="zOYn-aUXPlLyW62DlDA4-122" value="Person" style="swimlane;fontStyle=1;align=center;verticalAlign=top;childLayout=stackLayout;horizontal=1;startSize=26;horizontalStack=0;resizeParent=1;resizeParentMax=0;resizeLast=0;collapsible=1;marginBottom=0;whiteSpace=wrap;html=1;" vertex="1" parent="1">
          <mxGeometry x="1040" y="200" width="160" height="86" as="geometry" />
        </mxCell>
        <mxCell id="zOYn-aUXPlLyW62DlDA4-123" value="+ field: type" style="text;strokeColor=none;fillColor=none;align=left;verticalAlign=top;spacingLeft=4;spacingRight=4;overflow=hidden;rotatable=0;points=[[0,0.5],[1,0.5]];portConstraint=eastwest;whiteSpace=wrap;html=1;" vertex="1" parent="zOYn-aUXPlLyW62DlDA4-122">
          <mxGeometry y="26" width="160" height="26" as="geometry" />
        </mxCell>
        <mxCell id="zOYn-aUXPlLyW62DlDA4-124" value="" style="line;strokeWidth=1;fillColor=none;align=left;verticalAlign=middle;spacingTop=-1;spacingLeft=3;spacingRight=3;rotatable=0;labelPosition=right;points=[];portConstraint=eastwest;strokeColor=inherit;" vertex="1" parent="zOYn-aUXPlLyW62DlDA4-122">
          <mxGeometry y="52" width="160" height="8" as="geometry" />
        </mxCell>
        <mxCell id="zOYn-aUXPlLyW62DlDA4-125" value="+ method(type): type" style="text;strokeColor=none;fillColor=none;align=left;verticalAlign=top;spacingLeft=4;spacingRight=4;overflow=hidden;rotatable=0;points=[[0,0.5],[1,0.5]];portConstraint=eastwest;whiteSpace=wrap;html=1;" vertex="1" parent="zOYn-aUXPlLyW62DlDA4-122">
          <mxGeometry y="60" width="160" height="26" as="geometry" />
        </mxCell>
        <mxCell id="zOYn-aUXPlLyW62DlDA4-126" value="Car" style="swimlane;fontStyle=1;align=center;verticalAlign=top;childLayout=stackLayout;horizontal=1;startSize=26;horizontalStack=0;resizeParent=1;resizeParentMax=0;resizeLast=0;collapsible=1;marginBottom=0;whiteSpace=wrap;html=1;" vertex="1" parent="1">
          <mxGeometry x="1319" y="204" width="160" height="86" as="geometry" />
        </mxCell>
        <mxCell id="zOYn-aUXPlLyW62DlDA4-127" value="+ field: type" style="text;strokeColor=none;fillColor=none;align=left;verticalAlign=top;spacingLeft=4;spacingRight=4;overflow=hidden;rotatable=0;points=[[0,0.5],[1,0.5]];portConstraint=eastwest;whiteSpace=wrap;html=1;" vertex="1" parent="zOYn-aUXPlLyW62DlDA4-126">
          <mxGeometry y="26" width="160" height="26" as="geometry" />
        </mxCell>
        <mxCell id="zOYn-aUXPlLyW62DlDA4-128" value="" style="line;strokeWidth=1;fillColor=none;align=left;verticalAlign=middle;spacingTop=-1;spacingLeft=3;spacingRight=3;rotatable=0;labelPosition=right;points=[];portConstraint=eastwest;strokeColor=inherit;" vertex="1" parent="zOYn-aUXPlLyW62DlDA4-126">
          <mxGeometry y="52" width="160" height="8" as="geometry" />
        </mxCell>
        <mxCell id="zOYn-aUXPlLyW62DlDA4-129" value="+ method(type): type" style="text;strokeColor=none;fillColor=none;align=left;verticalAlign=top;spacingLeft=4;spacingRight=4;overflow=hidden;rotatable=0;points=[[0,0.5],[1,0.5]];portConstraint=eastwest;whiteSpace=wrap;html=1;" vertex="1" parent="zOYn-aUXPlLyW62DlDA4-126">
          <mxGeometry y="60" width="160" height="26" as="geometry" />
        </mxCell>
        <mxCell id="zOYn-aUXPlLyW62DlDA4-130" value="사람이 자동차를 타고(의존) 이동한다" style="text;html=1;align=center;verticalAlign=middle;resizable=0;points=[];autosize=1;strokeColor=none;fillColor=none;" vertex="1" parent="1">
          <mxGeometry x="1017" y="159" width="220" height="30" as="geometry" />
        </mxCell>
        <mxCell id="zOYn-aUXPlLyW62DlDA4-131" value="소유" style="text;html=1;align=center;verticalAlign=middle;resizable=0;points=[];autosize=1;strokeColor=none;fillColor=none;" vertex="1" parent="1">
          <mxGeometry x="1234" y="188" width="50" height="30" as="geometry" />
        </mxCell>
        <mxCell id="zOYn-aUXPlLyW62DlDA4-134" value="0...*" style="text;html=1;align=center;verticalAlign=middle;resizable=0;points=[];autosize=1;strokeColor=none;fillColor=none;" vertex="1" parent="1">
          <mxGeometry x="1194" y="238" width="40" height="30" as="geometry" />
        </mxCell>
        <mxCell id="zOYn-aUXPlLyW62DlDA4-135" value="1" style="text;html=1;align=center;verticalAlign=middle;resizable=0;points=[];autosize=1;strokeColor=none;fillColor=none;" vertex="1" parent="1">
          <mxGeometry x="1290" y="239" width="30" height="30" as="geometry" />
        </mxCell>
        <mxCell id="zOYn-aUXPlLyW62DlDA4-138" value="Car" style="swimlane;fontStyle=1;align=center;verticalAlign=top;childLayout=stackLayout;horizontal=1;startSize=26;horizontalStack=0;resizeParent=1;resizeParentMax=0;resizeLast=0;collapsible=1;marginBottom=0;whiteSpace=wrap;html=1;" vertex="1" parent="1">
          <mxGeometry x="1040" y="442" width="160" height="150" as="geometry" />
        </mxCell>
        <mxCell id="zOYn-aUXPlLyW62DlDA4-139" value="radio: Radio&lt;div&gt;포트1: 충전 Port&lt;/div&gt;" style="text;strokeColor=none;fillColor=none;align=left;verticalAlign=top;spacingLeft=4;spacingRight=4;overflow=hidden;rotatable=0;points=[[0,0.5],[1,0.5]];portConstraint=eastwest;whiteSpace=wrap;html=1;" vertex="1" parent="zOYn-aUXPlLyW62DlDA4-138">
          <mxGeometry y="26" width="160" height="44" as="geometry" />
        </mxCell>
        <mxCell id="zOYn-aUXPlLyW62DlDA4-140" value="" style="line;strokeWidth=1;fillColor=none;align=left;verticalAlign=middle;spacingTop=-1;spacingLeft=3;spacingRight=3;rotatable=0;labelPosition=right;points=[];portConstraint=eastwest;strokeColor=inherit;" vertex="1" parent="zOYn-aUXPlLyW62DlDA4-138">
          <mxGeometry y="70" width="160" height="8" as="geometry" />
        </mxCell>
        <mxCell id="zOYn-aUXPlLyW62DlDA4-141" value="Car(){&lt;div&gt;radio = new Radio();&lt;/div&gt;&lt;div&gt;포트1 = new 충전 Port();&lt;/div&gt;&lt;div&gt;}&lt;/div&gt;" style="text;strokeColor=none;fillColor=none;align=left;verticalAlign=top;spacingLeft=4;spacingRight=4;overflow=hidden;rotatable=0;points=[[0,0.5],[1,0.5]];portConstraint=eastwest;whiteSpace=wrap;html=1;" vertex="1" parent="zOYn-aUXPlLyW62DlDA4-138">
          <mxGeometry y="78" width="160" height="72" as="geometry" />
        </mxCell>
        <mxCell id="zOYn-aUXPlLyW62DlDA4-142" value="Radio" style="swimlane;fontStyle=1;align=center;verticalAlign=top;childLayout=stackLayout;horizontal=1;startSize=26;horizontalStack=0;resizeParent=1;resizeParentMax=0;resizeLast=0;collapsible=1;marginBottom=0;whiteSpace=wrap;html=1;" vertex="1" parent="1">
          <mxGeometry x="1310" y="442" width="160" height="86" as="geometry" />
        </mxCell>
        <mxCell id="zOYn-aUXPlLyW62DlDA4-143" value="+ field: type" style="text;strokeColor=none;fillColor=none;align=left;verticalAlign=top;spacingLeft=4;spacingRight=4;overflow=hidden;rotatable=0;points=[[0,0.5],[1,0.5]];portConstraint=eastwest;whiteSpace=wrap;html=1;" vertex="1" parent="zOYn-aUXPlLyW62DlDA4-142">
          <mxGeometry y="26" width="160" height="26" as="geometry" />
        </mxCell>
        <mxCell id="zOYn-aUXPlLyW62DlDA4-144" value="" style="line;strokeWidth=1;fillColor=none;align=left;verticalAlign=middle;spacingTop=-1;spacingLeft=3;spacingRight=3;rotatable=0;labelPosition=right;points=[];portConstraint=eastwest;strokeColor=inherit;" vertex="1" parent="zOYn-aUXPlLyW62DlDA4-142">
          <mxGeometry y="52" width="160" height="8" as="geometry" />
        </mxCell>
        <mxCell id="zOYn-aUXPlLyW62DlDA4-145" value="+ method(type): type" style="text;strokeColor=none;fillColor=none;align=left;verticalAlign=top;spacingLeft=4;spacingRight=4;overflow=hidden;rotatable=0;points=[[0,0.5],[1,0.5]];portConstraint=eastwest;whiteSpace=wrap;html=1;" vertex="1" parent="zOYn-aUXPlLyW62DlDA4-142">
          <mxGeometry y="60" width="160" height="26" as="geometry" />
        </mxCell>
        <mxCell id="zOYn-aUXPlLyW62DlDA4-146" value="" style="edgeStyle=orthogonalEdgeStyle;rounded=0;orthogonalLoop=1;jettySize=auto;html=1;entryX=0;entryY=0.5;entryDx=0;entryDy=0;endArrow=none;endFill=1;startFill=1;startArrow=diamondThin;" edge="1" parent="1" source="zOYn-aUXPlLyW62DlDA4-139" target="zOYn-aUXPlLyW62DlDA4-143">
          <mxGeometry relative="1" as="geometry" />
        </mxCell>
        <mxCell id="zOYn-aUXPlLyW62DlDA4-147" value="[집합 관계]" style="text;html=1;align=center;verticalAlign=middle;resizable=0;points=[];autosize=1;strokeColor=none;fillColor=none;" vertex="1" parent="1">
          <mxGeometry x="1035" y="368" width="80" height="30" as="geometry" />
        </mxCell>
        <mxCell id="zOYn-aUXPlLyW62DlDA4-148" value="자동차에는 라디오도 장치가 포함된다" style="text;html=1;align=center;verticalAlign=middle;resizable=0;points=[];autosize=1;strokeColor=none;fillColor=none;" vertex="1" parent="1">
          <mxGeometry x="1040" y="403" width="230" height="30" as="geometry" />
        </mxCell>
        <mxCell id="zOYn-aUXPlLyW62DlDA4-159" value="" style="edgeStyle=orthogonalEdgeStyle;rounded=0;orthogonalLoop=1;jettySize=auto;html=1;entryX=0.504;entryY=1.02;entryDx=0;entryDy=0;entryPerimeter=0;startArrow=none;startFill=0;endArrow=diamondThin;endFill=1;" edge="1" parent="1" source="zOYn-aUXPlLyW62DlDA4-149" target="zOYn-aUXPlLyW62DlDA4-141">
          <mxGeometry relative="1" as="geometry">
            <Array as="points">
              <mxPoint x="1120" y="612" />
              <mxPoint x="1121" y="612" />
            </Array>
          </mxGeometry>
        </mxCell>
        <mxCell id="zOYn-aUXPlLyW62DlDA4-149" value="충전 Port" style="swimlane;fontStyle=1;align=center;verticalAlign=top;childLayout=stackLayout;horizontal=1;startSize=26;horizontalStack=0;resizeParent=1;resizeParentMax=0;resizeLast=0;collapsible=1;marginBottom=0;whiteSpace=wrap;html=1;" vertex="1" parent="1">
          <mxGeometry x="1010" y="641" width="190" height="130" as="geometry" />
        </mxCell>
        <mxCell id="zOYn-aUXPlLyW62DlDA4-150" value="phone : Phone" style="text;strokeColor=none;fillColor=none;align=left;verticalAlign=top;spacingLeft=4;spacingRight=4;overflow=hidden;rotatable=0;points=[[0,0.5],[1,0.5]];portConstraint=eastwest;whiteSpace=wrap;html=1;" vertex="1" parent="zOYn-aUXPlLyW62DlDA4-149">
          <mxGeometry y="26" width="190" height="26" as="geometry" />
        </mxCell>
        <mxCell id="zOYn-aUXPlLyW62DlDA4-151" value="" style="line;strokeWidth=1;fillColor=none;align=left;verticalAlign=middle;spacingTop=-1;spacingLeft=3;spacingRight=3;rotatable=0;labelPosition=right;points=[];portConstraint=eastwest;strokeColor=inherit;" vertex="1" parent="zOYn-aUXPlLyW62DlDA4-149">
          <mxGeometry y="52" width="190" height="8" as="geometry" />
        </mxCell>
        <mxCell id="zOYn-aUXPlLyW62DlDA4-152" value="connect(Phone phone): void&lt;div&gt;{&lt;/div&gt;&lt;div&gt;this.phone = phone;&lt;/div&gt;" style="text;strokeColor=none;fillColor=none;align=left;verticalAlign=top;spacingLeft=4;spacingRight=4;overflow=hidden;rotatable=0;points=[[0,0.5],[1,0.5]];portConstraint=eastwest;whiteSpace=wrap;html=1;" vertex="1" parent="zOYn-aUXPlLyW62DlDA4-149">
          <mxGeometry y="60" width="190" height="70" as="geometry" />
        </mxCell>
        <mxCell id="zOYn-aUXPlLyW62DlDA4-166" style="edgeStyle=orthogonalEdgeStyle;rounded=0;orthogonalLoop=1;jettySize=auto;html=1;entryX=1;entryY=0.5;entryDx=0;entryDy=0;startArrow=none;startFill=0;endArrow=diamondThin;endFill=0;" edge="1" parent="1" source="zOYn-aUXPlLyW62DlDA4-160" target="zOYn-aUXPlLyW62DlDA4-150">
          <mxGeometry relative="1" as="geometry" />
        </mxCell>
        <mxCell id="zOYn-aUXPlLyW62DlDA4-160" value="Phone" style="swimlane;fontStyle=1;align=center;verticalAlign=top;childLayout=stackLayout;horizontal=1;startSize=26;horizontalStack=0;resizeParent=1;resizeParentMax=0;resizeLast=0;collapsible=1;marginBottom=0;whiteSpace=wrap;html=1;" vertex="1" parent="1">
          <mxGeometry x="1320" y="637" width="160" height="86" as="geometry" />
        </mxCell>
        <mxCell id="zOYn-aUXPlLyW62DlDA4-161" value="field: type" style="text;strokeColor=none;fillColor=none;align=left;verticalAlign=top;spacingLeft=4;spacingRight=4;overflow=hidden;rotatable=0;points=[[0,0.5],[1,0.5]];portConstraint=eastwest;whiteSpace=wrap;html=1;" vertex="1" parent="zOYn-aUXPlLyW62DlDA4-160">
          <mxGeometry y="26" width="160" height="26" as="geometry" />
        </mxCell>
        <mxCell id="zOYn-aUXPlLyW62DlDA4-162" value="" style="line;strokeWidth=1;fillColor=none;align=left;verticalAlign=middle;spacingTop=-1;spacingLeft=3;spacingRight=3;rotatable=0;labelPosition=right;points=[];portConstraint=eastwest;strokeColor=inherit;" vertex="1" parent="zOYn-aUXPlLyW62DlDA4-160">
          <mxGeometry y="52" width="160" height="8" as="geometry" />
        </mxCell>
        <mxCell id="zOYn-aUXPlLyW62DlDA4-163" value="+method(type): type" style="text;strokeColor=none;fillColor=none;align=left;verticalAlign=top;spacingLeft=4;spacingRight=4;overflow=hidden;rotatable=0;points=[[0,0.5],[1,0.5]];portConstraint=eastwest;whiteSpace=wrap;html=1;" vertex="1" parent="zOYn-aUXPlLyW62DlDA4-160">
          <mxGeometry y="60" width="160" height="26" as="geometry" />
        </mxCell>
        <mxCell id="zOYn-aUXPlLyW62DlDA4-167" value="[집약 관계]" style="text;html=1;align=center;verticalAlign=middle;resizable=0;points=[];autosize=1;strokeColor=none;fillColor=none;" vertex="1" parent="1">
          <mxGeometry x="1219" y="644.5" width="80" height="30" as="geometry" />
        </mxCell>
        <mxCell id="zOYn-aUXPlLyW62DlDA4-168" value="휴대폰을 충전 표트에 연결한다" style="text;html=1;align=center;verticalAlign=middle;resizable=0;points=[];autosize=1;strokeColor=none;fillColor=none;" vertex="1" parent="1">
          <mxGeometry x="1290" y="750" width="190" height="30" as="geometry" />
        </mxCell>
        <mxCell id="zOYn-aUXPlLyW62DlDA4-169" value="[상속] 정규직은 직업이다" style="text;html=1;align=center;verticalAlign=middle;resizable=0;points=[];autosize=1;strokeColor=none;fillColor=none;" vertex="1" parent="1">
          <mxGeometry x="1706" y="164" width="160" height="30" as="geometry" />
        </mxCell>
        <mxCell id="zOYn-aUXPlLyW62DlDA4-170" value="[상속] 계약직은 직업이다" style="text;html=1;align=center;verticalAlign=middle;resizable=0;points=[];autosize=1;strokeColor=none;fillColor=none;" vertex="1" parent="1">
          <mxGeometry x="1706" y="179" width="160" height="30" as="geometry" />
        </mxCell>
        <mxCell id="zOYn-aUXPlLyW62DlDA4-171" value="[상속] 직원은 사람이다" style="text;html=1;align=center;verticalAlign=middle;resizable=0;points=[];autosize=1;strokeColor=none;fillColor=none;" vertex="1" parent="1">
          <mxGeometry x="1710" y="148" width="140" height="30" as="geometry" />
        </mxCell>
        <mxCell id="zOYn-aUXPlLyW62DlDA4-172" value="사람" style="swimlane;fontStyle=1;align=center;verticalAlign=top;childLayout=stackLayout;horizontal=1;startSize=26;horizontalStack=0;resizeParent=1;resizeParentMax=0;resizeLast=0;collapsible=1;marginBottom=0;whiteSpace=wrap;html=1;" vertex="1" parent="1">
          <mxGeometry x="1908" y="217" width="160" height="114" as="geometry" />
        </mxCell>
        <mxCell id="zOYn-aUXPlLyW62DlDA4-173" value="+name : String&lt;div&gt;+age : Int&lt;/div&gt;&lt;div&gt;+addr : String&lt;/div&gt;" style="text;strokeColor=none;fillColor=none;align=left;verticalAlign=top;spacingLeft=4;spacingRight=4;overflow=hidden;rotatable=0;points=[[0,0.5],[1,0.5]];portConstraint=eastwest;whiteSpace=wrap;html=1;" vertex="1" parent="zOYn-aUXPlLyW62DlDA4-172">
          <mxGeometry y="26" width="160" height="54" as="geometry" />
        </mxCell>
        <mxCell id="zOYn-aUXPlLyW62DlDA4-174" value="" style="line;strokeWidth=1;fillColor=none;align=left;verticalAlign=middle;spacingTop=-1;spacingLeft=3;spacingRight=3;rotatable=0;labelPosition=right;points=[];portConstraint=eastwest;strokeColor=inherit;" vertex="1" parent="zOYn-aUXPlLyW62DlDA4-172">
          <mxGeometry y="80" width="160" height="8" as="geometry" />
        </mxCell>
        <mxCell id="zOYn-aUXPlLyW62DlDA4-175" value="+ method(type): type" style="text;strokeColor=none;fillColor=none;align=left;verticalAlign=top;spacingLeft=4;spacingRight=4;overflow=hidden;rotatable=0;points=[[0,0.5],[1,0.5]];portConstraint=eastwest;whiteSpace=wrap;html=1;" vertex="1" parent="zOYn-aUXPlLyW62DlDA4-172">
          <mxGeometry y="88" width="160" height="26" as="geometry" />
        </mxCell>
        <mxCell id="zOYn-aUXPlLyW62DlDA4-181" style="rounded=0;orthogonalLoop=1;jettySize=auto;html=1;entryX=0.52;entryY=1.13;entryDx=0;entryDy=0;entryPerimeter=0;endArrow=blockThin;endFill=0;" edge="1" parent="1" target="zOYn-aUXPlLyW62DlDA4-175">
          <mxGeometry relative="1" as="geometry">
            <mxPoint x="1850" y="360" as="targetPoint" />
            <mxPoint x="1850" y="420" as="sourcePoint" />
          </mxGeometry>
        </mxCell>
        <mxCell id="zOYn-aUXPlLyW62DlDA4-182" value="Extends" style="edgeLabel;html=1;align=center;verticalAlign=middle;resizable=0;points=[];" vertex="1" connectable="0" parent="zOYn-aUXPlLyW62DlDA4-181">
          <mxGeometry x="-0.1145" y="-1" relative="1" as="geometry">
            <mxPoint as="offset" />
          </mxGeometry>
        </mxCell>
        <mxCell id="zOYn-aUXPlLyW62DlDA4-176" value="직원&lt;div&gt;&amp;lt;&amp;lt;abstract&amp;gt;&amp;gt;&lt;/div&gt;" style="swimlane;fontStyle=1;align=center;verticalAlign=top;childLayout=stackLayout;horizontal=1;startSize=40;horizontalStack=0;resizeParent=1;resizeParentMax=0;resizeLast=0;collapsible=1;marginBottom=0;whiteSpace=wrap;html=1;" vertex="1" parent="1">
          <mxGeometry x="1770" y="410" width="160" height="100" as="geometry" />
        </mxCell>
        <mxCell id="zOYn-aUXPlLyW62DlDA4-177" value="+ field: type" style="text;strokeColor=none;fillColor=none;align=left;verticalAlign=top;spacingLeft=4;spacingRight=4;overflow=hidden;rotatable=0;points=[[0,0.5],[1,0.5]];portConstraint=eastwest;whiteSpace=wrap;html=1;" vertex="1" parent="zOYn-aUXPlLyW62DlDA4-176">
          <mxGeometry y="40" width="160" height="26" as="geometry" />
        </mxCell>
        <mxCell id="zOYn-aUXPlLyW62DlDA4-178" value="" style="line;strokeWidth=1;fillColor=none;align=left;verticalAlign=middle;spacingTop=-1;spacingLeft=3;spacingRight=3;rotatable=0;labelPosition=right;points=[];portConstraint=eastwest;strokeColor=inherit;" vertex="1" parent="zOYn-aUXPlLyW62DlDA4-176">
          <mxGeometry y="66" width="160" height="8" as="geometry" />
        </mxCell>
        <mxCell id="zOYn-aUXPlLyW62DlDA4-179" value="&lt;i&gt;&lt;font style=&quot;color: light-dark(rgb(255, 0, 0), rgb(237, 237, 237));&quot;&gt;setSalary(type):type&lt;/font&gt;&lt;/i&gt;" style="text;strokeColor=none;fillColor=none;align=left;verticalAlign=top;spacingLeft=4;spacingRight=4;overflow=hidden;rotatable=0;points=[[0,0.5],[1,0.5]];portConstraint=eastwest;whiteSpace=wrap;html=1;" vertex="1" parent="zOYn-aUXPlLyW62DlDA4-176">
          <mxGeometry y="74" width="160" height="26" as="geometry" />
        </mxCell>
        <mxCell id="zOYn-aUXPlLyW62DlDA4-183" value="계약직" style="swimlane;fontStyle=1;align=center;verticalAlign=top;childLayout=stackLayout;horizontal=1;startSize=26;horizontalStack=0;resizeParent=1;resizeParentMax=0;resizeLast=0;collapsible=1;marginBottom=0;whiteSpace=wrap;html=1;" vertex="1" parent="1">
          <mxGeometry x="1630" y="592" width="160" height="86" as="geometry" />
        </mxCell>
        <mxCell id="zOYn-aUXPlLyW62DlDA4-184" value="+ field: type" style="text;strokeColor=none;fillColor=none;align=left;verticalAlign=top;spacingLeft=4;spacingRight=4;overflow=hidden;rotatable=0;points=[[0,0.5],[1,0.5]];portConstraint=eastwest;whiteSpace=wrap;html=1;" vertex="1" parent="zOYn-aUXPlLyW62DlDA4-183">
          <mxGeometry y="26" width="160" height="26" as="geometry" />
        </mxCell>
        <mxCell id="zOYn-aUXPlLyW62DlDA4-185" value="" style="line;strokeWidth=1;fillColor=none;align=left;verticalAlign=middle;spacingTop=-1;spacingLeft=3;spacingRight=3;rotatable=0;labelPosition=right;points=[];portConstraint=eastwest;strokeColor=inherit;" vertex="1" parent="zOYn-aUXPlLyW62DlDA4-183">
          <mxGeometry y="52" width="160" height="8" as="geometry" />
        </mxCell>
        <mxCell id="zOYn-aUXPlLyW62DlDA4-186" value="+ method(type): type" style="text;strokeColor=none;fillColor=none;align=left;verticalAlign=top;spacingLeft=4;spacingRight=4;overflow=hidden;rotatable=0;points=[[0,0.5],[1,0.5]];portConstraint=eastwest;whiteSpace=wrap;html=1;" vertex="1" parent="zOYn-aUXPlLyW62DlDA4-183">
          <mxGeometry y="60" width="160" height="26" as="geometry" />
        </mxCell>
        <mxCell id="zOYn-aUXPlLyW62DlDA4-187" value="정규직" style="swimlane;fontStyle=1;align=center;verticalAlign=top;childLayout=stackLayout;horizontal=1;startSize=26;horizontalStack=0;resizeParent=1;resizeParentMax=0;resizeLast=0;collapsible=1;marginBottom=0;whiteSpace=wrap;html=1;" vertex="1" parent="1">
          <mxGeometry x="1820" y="592" width="160" height="86" as="geometry" />
        </mxCell>
        <mxCell id="zOYn-aUXPlLyW62DlDA4-188" value="+ field: type" style="text;strokeColor=none;fillColor=none;align=left;verticalAlign=top;spacingLeft=4;spacingRight=4;overflow=hidden;rotatable=0;points=[[0,0.5],[1,0.5]];portConstraint=eastwest;whiteSpace=wrap;html=1;" vertex="1" parent="zOYn-aUXPlLyW62DlDA4-187">
          <mxGeometry y="26" width="160" height="26" as="geometry" />
        </mxCell>
        <mxCell id="zOYn-aUXPlLyW62DlDA4-189" value="" style="line;strokeWidth=1;fillColor=none;align=left;verticalAlign=middle;spacingTop=-1;spacingLeft=3;spacingRight=3;rotatable=0;labelPosition=right;points=[];portConstraint=eastwest;strokeColor=inherit;" vertex="1" parent="zOYn-aUXPlLyW62DlDA4-187">
          <mxGeometry y="52" width="160" height="8" as="geometry" />
        </mxCell>
        <mxCell id="zOYn-aUXPlLyW62DlDA4-190" value="+ method(type): type" style="text;strokeColor=none;fillColor=none;align=left;verticalAlign=top;spacingLeft=4;spacingRight=4;overflow=hidden;rotatable=0;points=[[0,0.5],[1,0.5]];portConstraint=eastwest;whiteSpace=wrap;html=1;" vertex="1" parent="zOYn-aUXPlLyW62DlDA4-187">
          <mxGeometry y="60" width="160" height="26" as="geometry" />
        </mxCell>
        <mxCell id="zOYn-aUXPlLyW62DlDA4-191" style="rounded=0;orthogonalLoop=1;jettySize=auto;html=1;entryX=0.479;entryY=1.193;entryDx=0;entryDy=0;entryPerimeter=0;exitX=0.5;exitY=0;exitDx=0;exitDy=0;dashed=1;endArrow=blockThin;endFill=0;" edge="1" parent="1" source="zOYn-aUXPlLyW62DlDA4-183" target="zOYn-aUXPlLyW62DlDA4-179">
          <mxGeometry relative="1" as="geometry" />
        </mxCell>
        <mxCell id="zOYn-aUXPlLyW62DlDA4-192" style="rounded=0;orthogonalLoop=1;jettySize=auto;html=1;entryX=0.521;entryY=1.134;entryDx=0;entryDy=0;entryPerimeter=0;endArrow=blockThin;endFill=0;dashed=1;" edge="1" parent="1" target="zOYn-aUXPlLyW62DlDA4-179">
          <mxGeometry relative="1" as="geometry">
            <mxPoint x="1900" y="590" as="sourcePoint" />
            <mxPoint x="1857" y="523" as="targetPoint" />
          </mxGeometry>
        </mxCell>
        <mxCell id="zOYn-aUXPlLyW62DlDA4-194" value="&lt;div&gt;학생&lt;/div&gt;&lt;div&gt;&amp;lt;&amp;lt;abstract&amp;gt;&amp;gt;&lt;/div&gt;" style="swimlane;fontStyle=1;align=center;verticalAlign=top;childLayout=stackLayout;horizontal=1;startSize=40;horizontalStack=0;resizeParent=1;resizeParentMax=0;resizeLast=0;collapsible=1;marginBottom=0;whiteSpace=wrap;html=1;" vertex="1" parent="1">
          <mxGeometry x="2050" y="410" width="160" height="100" as="geometry" />
        </mxCell>
        <mxCell id="zOYn-aUXPlLyW62DlDA4-195" value="+ field: type" style="text;strokeColor=none;fillColor=none;align=left;verticalAlign=top;spacingLeft=4;spacingRight=4;overflow=hidden;rotatable=0;points=[[0,0.5],[1,0.5]];portConstraint=eastwest;whiteSpace=wrap;html=1;" vertex="1" parent="zOYn-aUXPlLyW62DlDA4-194">
          <mxGeometry y="40" width="160" height="26" as="geometry" />
        </mxCell>
        <mxCell id="zOYn-aUXPlLyW62DlDA4-196" value="" style="line;strokeWidth=1;fillColor=none;align=left;verticalAlign=middle;spacingTop=-1;spacingLeft=3;spacingRight=3;rotatable=0;labelPosition=right;points=[];portConstraint=eastwest;strokeColor=inherit;" vertex="1" parent="zOYn-aUXPlLyW62DlDA4-194">
          <mxGeometry y="66" width="160" height="8" as="geometry" />
        </mxCell>
        <mxCell id="zOYn-aUXPlLyW62DlDA4-197" value="&lt;i&gt;&lt;font style=&quot;color: light-dark(rgb(255, 0, 0), rgb(237, 237, 237));&quot;&gt;setSalary(type):type&lt;/font&gt;&lt;/i&gt;" style="text;strokeColor=none;fillColor=none;align=left;verticalAlign=top;spacingLeft=4;spacingRight=4;overflow=hidden;rotatable=0;points=[[0,0.5],[1,0.5]];portConstraint=eastwest;whiteSpace=wrap;html=1;" vertex="1" parent="zOYn-aUXPlLyW62DlDA4-194">
          <mxGeometry y="74" width="160" height="26" as="geometry" />
        </mxCell>
        <mxCell id="zOYn-aUXPlLyW62DlDA4-198" style="rounded=0;orthogonalLoop=1;jettySize=auto;html=1;entryX=0.585;entryY=1.157;entryDx=0;entryDy=0;entryPerimeter=0;exitX=0.5;exitY=0;exitDx=0;exitDy=0;endArrow=blockThin;endFill=0;" edge="1" parent="1" source="zOYn-aUXPlLyW62DlDA4-194" target="zOYn-aUXPlLyW62DlDA4-175">
          <mxGeometry relative="1" as="geometry" />
        </mxCell>
        <mxCell id="zOYn-aUXPlLyW62DlDA4-199" value="Extends" style="edgeLabel;html=1;align=center;verticalAlign=middle;resizable=0;points=[];" vertex="1" connectable="0" parent="zOYn-aUXPlLyW62DlDA4-198">
          <mxGeometry x="-0.0441" relative="1" as="geometry">
            <mxPoint as="offset" />
          </mxGeometry>
        </mxCell>
        <mxCell id="zOYn-aUXPlLyW62DlDA4-200" value="단대" style="swimlane;fontStyle=1;align=center;verticalAlign=top;childLayout=stackLayout;horizontal=1;startSize=26;horizontalStack=0;resizeParent=1;resizeParentMax=0;resizeLast=0;collapsible=1;marginBottom=0;whiteSpace=wrap;html=1;" vertex="1" parent="1">
          <mxGeometry x="2040" y="590" width="160" height="86" as="geometry" />
        </mxCell>
        <mxCell id="zOYn-aUXPlLyW62DlDA4-201" value="+ field: type" style="text;strokeColor=none;fillColor=none;align=left;verticalAlign=top;spacingLeft=4;spacingRight=4;overflow=hidden;rotatable=0;points=[[0,0.5],[1,0.5]];portConstraint=eastwest;whiteSpace=wrap;html=1;" vertex="1" parent="zOYn-aUXPlLyW62DlDA4-200">
          <mxGeometry y="26" width="160" height="26" as="geometry" />
        </mxCell>
        <mxCell id="zOYn-aUXPlLyW62DlDA4-202" value="" style="line;strokeWidth=1;fillColor=none;align=left;verticalAlign=middle;spacingTop=-1;spacingLeft=3;spacingRight=3;rotatable=0;labelPosition=right;points=[];portConstraint=eastwest;strokeColor=inherit;" vertex="1" parent="zOYn-aUXPlLyW62DlDA4-200">
          <mxGeometry y="52" width="160" height="8" as="geometry" />
        </mxCell>
        <mxCell id="zOYn-aUXPlLyW62DlDA4-203" value="+ method(type): type" style="text;strokeColor=none;fillColor=none;align=left;verticalAlign=top;spacingLeft=4;spacingRight=4;overflow=hidden;rotatable=0;points=[[0,0.5],[1,0.5]];portConstraint=eastwest;whiteSpace=wrap;html=1;" vertex="1" parent="zOYn-aUXPlLyW62DlDA4-200">
          <mxGeometry y="60" width="160" height="26" as="geometry" />
        </mxCell>
        <mxCell id="zOYn-aUXPlLyW62DlDA4-204" value="국비" style="swimlane;fontStyle=1;align=center;verticalAlign=top;childLayout=stackLayout;horizontal=1;startSize=26;horizontalStack=0;resizeParent=1;resizeParentMax=0;resizeLast=0;collapsible=1;marginBottom=0;whiteSpace=wrap;html=1;" vertex="1" parent="1">
          <mxGeometry x="2230" y="590" width="160" height="82" as="geometry" />
        </mxCell>
        <mxCell id="zOYn-aUXPlLyW62DlDA4-205" value="+ field: type" style="text;strokeColor=none;fillColor=none;align=left;verticalAlign=top;spacingLeft=4;spacingRight=4;overflow=hidden;rotatable=0;points=[[0,0.5],[1,0.5]];portConstraint=eastwest;whiteSpace=wrap;html=1;" vertex="1" parent="zOYn-aUXPlLyW62DlDA4-204">
          <mxGeometry y="26" width="160" height="22" as="geometry" />
        </mxCell>
        <mxCell id="zOYn-aUXPlLyW62DlDA4-206" value="" style="line;strokeWidth=1;fillColor=none;align=left;verticalAlign=middle;spacingTop=-1;spacingLeft=3;spacingRight=3;rotatable=0;labelPosition=right;points=[];portConstraint=eastwest;strokeColor=inherit;" vertex="1" parent="zOYn-aUXPlLyW62DlDA4-204">
          <mxGeometry y="48" width="160" height="8" as="geometry" />
        </mxCell>
        <mxCell id="zOYn-aUXPlLyW62DlDA4-207" value="+ method(type): type" style="text;strokeColor=none;fillColor=none;align=left;verticalAlign=top;spacingLeft=4;spacingRight=4;overflow=hidden;rotatable=0;points=[[0,0.5],[1,0.5]];portConstraint=eastwest;whiteSpace=wrap;html=1;" vertex="1" parent="zOYn-aUXPlLyW62DlDA4-204">
          <mxGeometry y="56" width="160" height="26" as="geometry" />
        </mxCell>
        <mxCell id="zOYn-aUXPlLyW62DlDA4-208" style="rounded=0;orthogonalLoop=1;jettySize=auto;html=1;entryX=0.499;entryY=1.095;entryDx=0;entryDy=0;entryPerimeter=0;dashed=1;endArrow=blockThin;endFill=0;" edge="1" parent="1" source="zOYn-aUXPlLyW62DlDA4-200" target="zOYn-aUXPlLyW62DlDA4-197">
          <mxGeometry relative="1" as="geometry" />
        </mxCell>
        <mxCell id="zOYn-aUXPlLyW62DlDA4-209" style="rounded=0;orthogonalLoop=1;jettySize=auto;html=1;entryX=0.528;entryY=1.191;entryDx=0;entryDy=0;entryPerimeter=0;exitX=0.5;exitY=0;exitDx=0;exitDy=0;endArrow=blockThin;endFill=0;dashed=1;" edge="1" parent="1" source="zOYn-aUXPlLyW62DlDA4-204" target="zOYn-aUXPlLyW62DlDA4-197">
          <mxGeometry relative="1" as="geometry" />
        </mxCell>
      </root>
    </mxGraphModel>
  </diagram>
</mxfile>
